<svg width="1560" height="2736" viewBox="0 0 1560 2736" fill="none" xmlns="http://www.w3.org/2000/svg">
<path d="M712.231 2735H343.951C341.164 2718.93 340.367 2702.63 338.708 2686.42C335.391 2655.31 332.073 2624.26 329.087 2593.25C326.93 2570.16 323.778 2546.97 313.891 2525.37C308.918 2514.11 305.395 2502.26 303.407 2490.1C300.918 2476.03 297.998 2462.02 295.079 2448.01C293.884 2442.18 290.799 2436.79 290.235 2430.77C289.083 2415.81 285.321 2401.17 279.12 2387.51C274.641 2377.93 268.702 2369.01 266.214 2358.53C265.973 2357.91 265.625 2357.34 265.185 2356.84C259.532 2347.81 255.071 2338.09 251.914 2327.92C246.506 2312.48 244.15 2296.28 239.372 2280.67C236.054 2269.56 230.58 2261.77 219.465 2258.11C215.178 2256.7 211.336 2254.18 208.325 2250.81C205.314 2247.44 203.24 2243.34 202.312 2238.91C201.425 2234.31 199.482 2229.98 196.638 2226.27C191.937 2220.58 188.996 2213.64 188.178 2206.3C183.168 2177.85 175.637 2149.73 172.153 2121.09C171.157 2112.87 168.304 2104.88 168.536 2096.46C168.569 2090.13 166.969 2083.89 163.891 2078.36C157.51 2066.33 152.224 2053.74 148.098 2040.76C139.24 2011.61 133.069 1982.06 133.898 1951.58C133.898 1951.18 134.761 1950.82 135.391 1950.35C137.481 1951.88 136.486 1954.94 138.278 1957.94C139.045 1951.87 138.934 1945.71 137.946 1939.67C135.524 1921.57 131.576 1903.67 130.348 1885.37C129.795 1877.04 127.773 1868.87 124.376 1861.24C121.506 1855.16 120.963 1848.23 122.85 1841.78C124.741 1835.12 124.475 1829.03 118.57 1823.68C117.384 1822.61 116.436 1821.3 115.787 1819.84C115.138 1818.39 114.803 1816.81 114.803 1815.21C114.803 1813.61 115.138 1812.03 115.787 1810.57C116.436 1809.11 117.384 1807.81 118.57 1806.74C126.632 1800.85 127.627 1793.6 126.068 1784.81C125.849 1782.49 125.961 1780.15 126.4 1777.86C127.309 1770.56 126.513 1763.16 124.077 1756.23C121.354 1749.05 120.222 1741.36 120.759 1733.7C121.484 1727.99 120.478 1722.19 117.873 1717.06C114.854 1711.45 113.925 1704.94 115.252 1698.7C116.844 1689.55 113.228 1680.96 112.365 1672.08C112.325 1671.23 112.057 1670.41 111.589 1669.7C111.122 1668.99 110.473 1668.42 109.711 1668.05C104.701 1665.95 105.398 1661.53 104.701 1657.27C103.059 1648.72 104.321 1639.86 108.284 1632.11C109.755 1628.77 110.728 1625.23 111.171 1621.6C112.06 1616.01 113.783 1610.58 116.28 1605.49C121.423 1595.85 127.262 1586.53 129.552 1575.55C130.108 1573.31 131.163 1571.23 132.637 1569.46C139.273 1561.94 140.799 1552.16 141.231 1543.37C141.629 1535.25 144.183 1525.14 135.623 1518.32C134.86 1517.75 134.993 1515.79 135.093 1514.49C135.195 1510.83 135.583 1507.18 136.254 1503.57C139.937 1487.37 143.487 1471.17 142.889 1454.36C142.889 1452 142.591 1448.94 146.207 1447.47C148.497 1454.13 146.605 1461.12 148.032 1469.44C149.556 1462.69 150.401 1455.82 150.554 1448.9C152.146 1420.16 151.682 1391.47 159.545 1362.99C164.629 1343.39 167.665 1323.32 168.603 1303.1C168.653 1300.43 169.01 1297.79 169.664 1295.21C174.508 1279.1 172.982 1262.27 175.305 1245.83C177.329 1231.12 176.267 1215.88 176.566 1201.04C176.763 1193.09 178.265 1185.22 181.011 1177.75C184.306 1169.4 186.643 1160.71 187.979 1151.83C190.069 1135.36 195.51 1119.49 196.34 1102.78C196.937 1098.83 197.903 1094.94 199.226 1091.17C202.544 1077.63 207.587 1064.55 210.408 1050.84C215.161 1027.71 222.611 1005.21 232.604 983.825C242.557 962.629 257.62 944.894 272.418 927.026C276.001 922.667 279.784 918.441 283.466 914.182C285.464 911.523 288.149 909.463 291.23 908.225C299.124 905.39 306.644 901.602 313.626 896.945C320.726 892.353 328.025 887.462 336.685 886.098C343.907 884.82 350.786 882.056 356.89 877.979C378.423 864.236 403.041 858.014 426.565 848.697C432.224 846.876 437.674 844.456 442.822 841.477C450.518 835.639 459.74 832.171 469.365 831.494C478.608 831.746 487.819 830.291 496.538 827.202C500.916 825.589 505.597 824.975 510.241 825.405C522.417 826.436 531.044 820.647 538.608 812.095C541.263 809.134 543.685 805.44 547.666 804.542C555.397 802.878 561.402 798.086 568.104 794.559C572.55 792.164 577.294 789.601 582.271 791.232C592.722 794.925 599.325 789.435 603.804 781.682C608.747 773.131 611.667 763.448 619.132 756.36C620.194 755.362 620.327 753.299 620.658 751.702C623.165 739.99 624.598 728.072 624.938 716.098C625.204 697.73 622.152 679.662 621.156 661.461C619.516 631.553 614.552 601.921 606.359 573.117C604.301 565.83 602.079 564.033 594.381 563.9C591.898 564.081 589.403 563.762 587.044 562.962C584.685 562.162 582.51 560.897 580.645 559.241C566.615 546.252 557.623 528.699 555.264 509.695C553.505 493.724 549.756 478.251 546.472 462.678C544.881 456.898 544.654 450.826 545.808 444.943C549.292 431.134 547.235 417.824 543.087 404.648C540.699 397.028 537.878 389.574 535.622 381.921C531.807 368.611 527.792 355.301 529.517 341.725C532.205 320.33 529.186 299.267 527.427 278.171C526.728 271.024 527.99 263.821 531.077 257.341C536.949 244.031 541.263 230.522 537.712 215.748C537.399 214.475 537.389 213.146 537.683 211.868C537.977 210.591 538.567 209.4 539.405 208.394C545.211 200.009 549.358 190.525 556.491 183.005C557.299 182.124 557.854 181.041 558.1 179.87C558.345 178.699 558.271 177.483 557.885 176.35C555.43 164.471 560.207 154.289 565.483 144.207C566.426 142.43 567.883 140.98 569.663 140.048C579.617 134.724 586.02 124.742 596.571 120.083C600.519 118.386 601.747 114.293 603.207 110.567C603.999 107.808 605.819 105.461 608.29 104.012C610.76 102.562 613.692 102.121 616.478 102.78C622.716 103.712 629.749 104.777 635.191 102.481C643.651 98.8539 652.012 99.6192 660.439 99.719C671.388 99.719 679.384 92.3321 689.205 89.5037C693.087 88.4057 695.841 87.3742 699.159 89.8365C701.547 91.6666 704.401 93.53 707.32 91.3671C708.993 90.2861 710.871 89.5652 712.836 89.2501C714.8 88.9351 716.809 89.0328 718.734 89.537C723.777 90.269 727.194 88.7051 728.09 83.2481C728.422 81.2849 728.754 78.3567 730.778 78.3567C738.044 78.3567 743.817 74.0643 750.386 72.1344C752.662 71.7648 754.996 72.1627 757.022 73.2657C770.724 79.1221 785.92 79.6544 799.689 85.3444C800.318 85.562 800.981 85.6635 801.647 85.6439C808.581 85.6439 813.425 88.9713 817.805 94.0291C821.554 98.255 825.436 102.547 831.54 103.279C841.356 105.017 850.589 109.167 858.415 115.358C864.055 119.318 869.795 122.745 867.074 132.861C874.341 126.206 880.346 128.635 884.626 132.528C890.963 138.118 898.859 142.277 902.609 150.696C904.168 154.223 907.054 158.249 911.5 157.65C917.24 156.885 918.136 160.578 919.596 164.305C921.056 168.032 920.824 173.023 923.644 176.517C929.552 184.136 934.048 192.758 936.915 201.972C939.271 209.093 946.869 210.357 951.248 215.282C953.637 218.044 956.159 215.515 958.581 215.049C959.223 214.855 959.9 214.803 960.564 214.897C961.228 214.99 961.864 215.227 962.429 215.591C962.993 215.954 963.472 216.436 963.833 217.003C964.194 217.57 964.428 218.209 964.52 218.875C967.946 230.297 968.941 242.314 967.439 254.146C965.921 263.054 966.627 272.2 969.496 280.766C971.111 284.421 972.088 288.326 972.383 292.312C972.018 305.19 974.904 318.233 970.127 330.911C969.559 333.174 969.458 335.529 969.828 337.832C970.083 341.162 969.501 344.502 968.136 347.548C966.502 351.902 965.54 356.48 965.283 361.124C964.688 370.006 963.469 378.835 961.633 387.544C959.178 396.961 956.192 406.777 959.841 416.926C965.062 432.174 965.271 448.699 960.439 464.076C958.168 472.416 956.33 480.868 954.931 489.398C953.012 501.778 948.314 513.56 941.194 523.855C934.073 534.149 924.714 542.688 913.823 548.826C912.195 549.64 910.76 550.795 909.615 552.213C908.47 553.631 907.642 555.279 907.187 557.045C903.67 570.921 898.627 584.364 896.139 598.472C890.764 629.051 889.503 659.93 888.441 690.842C888.047 694.015 888.76 697.227 890.46 699.933C892.16 702.638 894.741 704.67 897.765 705.683C906.325 709.01 911.368 715.998 914.918 724.184C917.124 730.096 919.626 735.894 922.416 741.553C931.275 757.625 939.835 774.229 960.206 778.355C970.831 780.977 981.094 784.9 990.764 790.034C1000.05 794.46 1009.51 799.75 1019.93 799.417C1033.4 798.985 1045.38 803.311 1057.35 808.202C1071.52 813.901 1086.28 818.007 1101.35 820.447C1124.22 824.474 1146.83 829.875 1169.06 836.618C1194.58 844.072 1218.33 856.25 1243.55 864.536C1247.01 865.757 1250.14 867.761 1252.71 870.392C1257.13 874.829 1261.68 879.265 1266.34 883.702C1270.84 887.702 1274.26 892.771 1276.3 898.443C1284.03 922.201 1296.2 944.062 1305.29 967.288C1310.94 981.862 1316.51 996.47 1321.69 1011.21C1326.86 1025.95 1332.47 1040.59 1334.56 1056.23C1335.75 1065.12 1335.69 1074.3 1337.88 1082.85C1343.42 1105.51 1346.4 1128.6 1350.65 1151.46C1358.58 1194.09 1361.5 1237.24 1366.67 1280.14C1369.29 1303.57 1374.71 1326.61 1382.8 1348.75C1386.35 1357 1388.76 1365.7 1389.97 1374.6C1391.16 1388.68 1395.31 1401.99 1398.19 1415.63C1399.77 1422.78 1400.87 1430.03 1401.51 1437.33C1402.24 1446.91 1402.97 1456.56 1404.43 1466.07C1407.75 1487.17 1410.27 1508.23 1407.15 1529.6C1406.47 1534.89 1407.45 1540.27 1409.97 1544.97C1414.58 1554.52 1419.93 1563.93 1421.09 1574.72C1422.55 1587.63 1425 1600.34 1427.33 1613.11C1428.36 1618.67 1428.91 1624.3 1428.95 1629.95C1428.9 1636.94 1430.19 1643.88 1432.73 1650.38C1436.32 1659.03 1437.68 1668.45 1436.68 1677.77C1434.82 1695.64 1433.13 1713.5 1431.51 1731.37C1431.28 1736.03 1430.43 1740.64 1428.98 1745.08C1425.14 1755.06 1424.47 1765.85 1423.28 1776.39C1420.46 1801.52 1417.8 1826.64 1409.28 1850.66C1408.62 1852.2 1408.19 1853.83 1407.98 1855.49C1407.19 1874.32 1400.68 1892.09 1396.4 1910.02C1392.89 1924.93 1392.16 1940.3 1387.61 1955.01C1384.93 1963.3 1384.5 1972.16 1386.38 1980.67C1387.17 1984.44 1387.02 1988.36 1385.95 1992.06C1384.88 1995.77 1382.92 1999.16 1380.24 2001.93C1377.85 2004.69 1375.24 2007.26 1372.45 2009.62C1370.82 2010.78 1369.53 2012.36 1368.74 2014.21C1367.95 2016.05 1367.69 2018.08 1367.97 2020.06C1369.36 2029.31 1365.41 2036.87 1360.64 2044.25C1352.54 2056.8 1345.64 2070.11 1336.12 2081.72C1333.84 2085 1331.96 2088.54 1330.51 2092.27C1328.49 2096.53 1326.23 2100.55 1332.43 2103.95C1335.59 2105.68 1336.58 2109.94 1336.95 2113.63C1337.9 2122.25 1337.25 2130.97 1335.02 2139.35C1334.61 2141.32 1333.72 2143.15 1332.43 2144.69C1331.14 2146.23 1329.49 2147.42 1327.62 2148.17C1324.15 2150.09 1320.43 2151.55 1316.58 2152.5C1314.11 2152.91 1311.76 2153.86 1309.69 2155.28C1307.63 2156.7 1305.9 2158.55 1304.63 2160.71C1301.87 2164.44 1299.79 2168.62 1298.46 2173.06C1294.61 2188.76 1285.77 2202.77 1273.28 2212.99C1258.75 2224.64 1249.79 2238.21 1247.6 2257.08C1246.07 2270.02 1237.41 2280.77 1233 2292.95C1232.25 2294.83 1231 2296.47 1229.38 2297.69C1227.77 2298.91 1225.85 2299.66 1223.84 2299.87C1221.22 2300.26 1218.77 2301.41 1216.8 2303.19C1214.83 2304.96 1213.43 2307.28 1212.76 2309.85C1210.47 2316.07 1209.11 2322.93 1205.63 2328.39C1201.03 2336.13 1198.54 2344.96 1198.43 2353.97C1197.93 2362.69 1197.2 2371.18 1192.32 2378.8C1191.13 2380.81 1190.53 2383.11 1190.6 2385.45C1191.26 2405.42 1188.27 2425.38 1192.29 2445.35C1193 2450.28 1193.17 2455.28 1192.82 2460.25C1192.55 2476.89 1188.94 2493.33 1193.78 2509.77C1194.91 2513.59 1196.2 2517.42 1197.1 2521.28C1198.26 2527.33 1201.31 2534.09 1196.8 2539.55C1190.17 2547.63 1189.87 2556.45 1191.69 2565.87C1194.08 2577.28 1194.68 2589 1193.45 2600.61C1192.4 2608.25 1193.63 2616.04 1196.97 2623C1199.15 2628.22 1200.27 2633.81 1200.29 2639.47C1201.11 2651.08 1200.75 2662.76 1200.58 2674.31C1200.32 2694.57 1200.29 2714.84 1200.15 2735.1H782.105C777.526 2719.1 777.161 2702.29 772.582 2686.29C770.691 2679.63 768.966 2672.81 767.672 2665.99C762.33 2637.94 757.32 2609.86 751.912 2581.84C749.623 2570.13 746.703 2558.55 743.883 2546.93C743.153 2543.91 743.219 2539.48 738.707 2539.65C735.058 2539.65 734.693 2543.71 734.029 2546.47C731.873 2555.52 729.716 2564.54 727.991 2573.65C722.848 2600.77 722.251 2628.42 718.767 2655.74C715.25 2681.96 715.184 2708.61 712.231 2735ZM1146.27 1606.06C1143.35 1608.22 1143.68 1611.12 1143.19 1613.61C1138.44 1637.41 1134.53 1661.36 1128.39 1684.85C1127.22 1691.06 1126.63 1697.37 1126.63 1703.69C1124.64 1730.81 1130.25 1757.36 1133.73 1783.91C1136.48 1804.71 1137.54 1825.61 1140.37 1846.3C1142.99 1864.74 1140.37 1883.6 1145.47 1901.81C1145.92 1905.13 1145.83 1908.5 1145.21 1911.79C1144.31 1927.99 1141.89 1944.23 1144.61 1960.5C1146.77 1972.6 1146.87 1984.97 1144.91 1997.1C1144.57 1999.41 1144.49 2001.74 1144.68 2004.06C1144.61 2005.07 1144.92 2006.06 1145.54 2006.86C1146.16 2007.65 1147.06 2008.19 1148.05 2008.36C1149.04 2008.54 1150.06 2008.34 1150.92 2007.8C1151.77 2007.26 1152.4 2006.43 1152.67 2005.46C1153.96 2001.34 1155.61 1997.35 1157.62 1993.54C1162.96 1985.96 1161.93 1978.94 1158.31 1971.08C1152.21 1957.77 1146.7 1944.46 1147.43 1929.09C1148.33 1910.42 1152.48 1894.22 1170.66 1885.13C1172.52 1884.38 1174.19 1883.2 1175.53 1881.71C1176.88 1880.21 1177.86 1878.42 1178.42 1876.48C1181.04 1865.3 1179.88 1854.46 1172.58 1845.4C1168.74 1841.25 1166.33 1835.97 1165.71 1830.33C1164.78 1817.1 1164.88 1803.82 1166.01 1790.6C1167.54 1775.36 1176.73 1764.31 1187.54 1754.76C1190.43 1752.54 1192.69 1749.61 1194.13 1746.25C1195.56 1742.9 1196.12 1739.23 1195.74 1735.6C1195.84 1731.94 1195.59 1728.29 1194.98 1724.68C1191.39 1712.87 1193.55 1704.12 1204.3 1696.33C1208.41 1693.33 1211.38 1689.01 1212.72 1684.09C1214.07 1679.17 1213.71 1673.94 1211.7 1669.25C1208.74 1662.53 1204.46 1656.49 1199.12 1651.47C1193.78 1646.45 1187.48 1642.56 1180.61 1640.03C1174.15 1637.95 1168.2 1634.52 1163.14 1629.98C1158.08 1625.44 1154.03 1619.89 1151.25 1613.68C1150.32 1611.15 1149.85 1607.92 1146.27 1606.06ZM359.71 1715.43C359.71 1714.27 359.71 1713.6 359.71 1712.94C359.502 1709.44 358.497 1706.04 356.771 1702.99C355.045 1699.95 352.646 1697.34 349.757 1695.37C344.448 1691.38 339.803 1696.3 335.059 1698C333.201 1698.66 331.475 1699.8 329.651 1700.53C328.744 1700.76 327.913 1701.23 327.242 1701.88C326.571 1702.53 326.084 1703.35 325.828 1704.26C325.573 1705.16 325.559 1706.12 325.787 1707.03C326.015 1707.94 326.478 1708.77 327.129 1709.44C332.172 1716.43 336.651 1723.79 341.296 1731.04C341.679 1731.8 342.238 1732.46 342.925 1732.96C343.613 1733.46 344.411 1733.79 345.251 1733.92C346.092 1734.05 346.951 1733.98 347.758 1733.71C348.565 1733.44 349.295 1732.98 349.889 1732.37C355.032 1727.78 360.341 1722.99 359.71 1715.43Z" fill="#4B5563"/>
</svg>
